<svg width="51" height="95" viewBox="0 0 51 95" fill="none" xmlns="http://www.w3.org/2000/svg">
<path fill-rule="evenodd" clip-rule="evenodd" d="M10.3282 33.4755C10.1335 33.7798 9.19326 33.9089 8.78854 34.037C7.09242 34.5737 5.92754 35.0125 4.7031 36.3087C3.5303 37.5505 2.15494 39.428 1.20938 41.2979C-0.0537024 43.7958 -0.453157 44.9539 0.619746 47.869C1.387 49.9535 2.71229 51.7327 3.62441 53.4812C3.88217 53.318 3.75843 53.3942 3.96902 53.2038C4.10449 53.0812 4.10662 53.0698 4.25778 52.9367C4.46086 52.7582 4.6393 52.5948 4.85622 52.4194C5.56631 51.8452 7.15553 50.7955 7.60877 52.138C7.72224 52.4742 7.75228 52.8659 7.67545 53.2143C7.58437 53.6267 7.45169 53.6113 7.23278 53.8986C8.54565 54.9383 9.41861 59.3276 8.32846 59.4232C7.6993 59.4782 7.69365 57.9032 6.95943 57.4187C6.91357 58.0306 7.03747 59.4143 7.31897 60.0249C7.42031 60.2445 7.33359 60.1112 7.46683 60.2706L7.4742 59.805C10.4321 60.3836 23.9611 60.0625 26.9722 59.4187C27.8862 55.0397 27.0151 46.0819 27.2498 44.4518C27.9556 44.8339 28.3679 45.6982 29.1176 46.0845C29.1303 45.1035 29.1541 43.4468 29.7319 42.8151C30.0313 42.4879 31.5826 41.4632 32.0404 41.3247L32.0122 40.9099C31.72 40.7178 30.6474 39.2055 30.3334 38.7947C30.0408 38.4122 29.7994 38.1324 29.4857 37.7473C29.2158 37.4162 28.7743 37.0527 28.6707 36.6793L28.0251 36.194C27.8 36.0119 27.6752 35.8943 27.4988 35.7153C27.2034 35.4155 26.8111 34.8236 26.4986 34.5835C26.3696 34.5976 25.5245 34.1421 25.0637 34.0251C24.4838 33.8776 23.8023 33.7436 23.1688 33.6719L22.8346 33.1302C23.1405 33.9523 22.5338 35.226 22.2563 36.0052C21.1935 38.9884 20.656 39.4533 18.6599 38.3105C17.438 37.6109 17.1828 37.1452 16.697 36.8234C16.0153 37.2641 13.4981 39.9292 12.2787 38.4386C11.2473 37.1777 10.7228 34.1003 10.3282 33.4755Z" fill="#0891B2"/>
<path fill-rule="evenodd" clip-rule="evenodd" d="M7.46683 60.2706L7.55329 61.7644C7.58437 63.8426 8.414 73.691 8.67455 76.0729C8.91979 78.3148 9.2614 80.6518 9.55807 82.8955L10.2449 87.8915C10.3471 88.5626 10.2946 89.0961 10.8061 89.3871C11.7208 89.6803 13.7773 89.578 14.8388 89.4782L15.193 89.3048C15.1734 88.6854 15.4696 87.0216 15.539 86.199C15.6313 85.1049 15.6774 84.04 15.7322 82.9323C16.0151 77.2207 15.9242 72.3777 16.51 66.4979C16.5579 66.0183 16.6106 65.4806 16.6895 65.0274C16.7919 64.4385 16.8385 64.3175 17.2188 63.9422C18.1714 63.9965 18.423 64.9536 18.5499 65.8549C18.9306 68.5582 18.6951 72.1382 19.0208 74.8688C19.31 77.2948 19.1764 84.7833 19.1018 87.5417C20.573 87.593 23.4069 87.2663 24.5688 86.9311C25.3975 83.5417 26.5607 74.0065 26.7305 70.3972C26.8012 68.8971 26.7415 65.4459 27.0169 64.212C26.6434 64.3559 26.5753 64.4007 26.4382 64.8638C26.14 65.8715 26.5235 66.819 26.1948 67.6067C25.2929 67.8429 25.2638 66.8151 25.148 65.9838C25.0339 65.165 24.9635 64.1844 25.3454 63.5363C25.635 63.0447 26.3788 62.4708 26.7446 62.0334C27.1998 61.4892 26.9291 60.2421 26.9722 59.4187C23.9611 60.0625 10.4321 60.3837 7.47419 59.805L7.46683 60.2706Z" fill="#164E63"/>
<path fill-rule="evenodd" clip-rule="evenodd" d="M5.90843 24.0364C6.55817 24.8155 6.06974 23.9568 6.50477 25.246C7.45405 28.0579 10.0763 29.9466 12.9254 30.6493C13.0418 30.678 13.1821 30.6981 13.2802 30.7364C13.6087 30.8648 13.4779 30.7516 13.6723 30.9984C14.2287 30.798 15.7027 31.1143 16.4738 31.1474C17.5329 31.1928 18.4582 31.1149 19.5077 31.0783C20.0038 30.8834 21.159 30.7522 21.8064 30.536C22.1834 30.4101 22.4466 30.3216 22.854 30.128C23.3188 29.9071 23.4292 29.7049 23.9688 29.6051C23.092 28.0226 22.8293 24.223 23.1228 22.2579C23.3067 21.0278 23.6667 19.9406 24.1608 18.9419C24.6758 17.901 25.2271 17.1893 25.7694 16.3247C25.3001 16.2679 24.8501 16.1503 24.3137 16.3295C23.8651 16.4795 23.5682 16.5927 23.0315 16.7979L20.6359 16.77C19.7711 16.6408 18.8168 16.111 18.1863 15.5758C16.4932 14.1387 17.0364 13.3313 16.2948 13.75C16.1696 13.8208 16.0783 13.9132 15.9718 13.9837C15.7648 14.1208 15.5553 14.2004 15.2736 14.2957C14.7499 14.473 14.0867 14.5396 13.5008 14.4086C12.1499 14.1064 11.6001 12.8961 11.2295 12.6669L10.8051 13.0683C10.6872 13.187 10.5506 13.315 10.4585 13.3964C10.2169 13.6103 9.95819 13.7979 9.62858 14.009C8.81451 14.5305 7.68982 14.6939 7.62248 15.1035C7.55183 15.5322 7.62619 15.8224 7.50452 16.4623C7.25716 17.7627 6.94971 19.2156 5.77296 19.7368C5.73157 20.3515 5.85929 21.3416 5.92109 22.0605C6.03009 23.3277 6.35691 23.928 5.90843 24.0364Z" fill="#FDD39C"/>
<path fill-rule="evenodd" clip-rule="evenodd" d="M30.1043 12.1932C29.8448 12.4794 29.0814 12.9861 28.6901 13.319C28.4346 13.5363 27.6762 14.31 27.3588 14.4134C27.1419 14.8647 26.8465 15.0069 26.5514 15.3898C26.4063 15.5992 25.8991 16.2146 25.7694 16.3247C25.2271 17.1894 24.6758 17.901 24.1608 18.9419C23.6667 19.9406 23.3067 21.0278 23.1228 22.2579C22.8293 24.223 23.092 28.0227 23.9688 29.6052C24.17 30.5925 25.5145 33.491 26.1423 33.8685C26.1056 33.3835 25.5038 32.0339 25.2407 29.9335C25.1058 28.8575 24.9437 26.4412 25.1216 25.3658C25.3747 25.8276 25.5522 26.3293 25.8467 26.7899L25.9957 26.2305C26.2139 24.7453 26.7312 23.7161 27.7925 22.5757C30.3845 19.7899 34.5239 19.1679 37.7264 17.2347C38.1098 17.0033 39.3509 16.0168 39.5409 15.9836C39.578 16.8354 39.4294 16.8761 39.2777 17.5735C39.985 17.4195 41.3804 16.6331 42.0516 16.3022C42.7889 15.9388 44.0948 15.1843 44.8702 14.9897C44.3705 17.5701 47.1499 22.127 48.0725 24.4026C49.7994 28.6609 49.0748 30.6547 48.1092 34.9312C49.1023 34.3634 50.1995 31.9975 50.489 30.7669C51.4188 26.8138 51.1648 17.3903 47.9617 14.8081C47.3183 14.2893 46.9029 13.9499 46.0241 13.5095C45.6649 13.3295 45.3384 13.176 44.951 13.0193C44.1781 12.7068 44.5525 12.7828 44.202 12.0965C43.6974 11.1084 41.5127 10.0196 40.1419 9.68779C38.2892 9.23934 36.1339 9.47497 34.4343 10.0247C31.859 10.8574 31.5958 11.4457 30.1043 12.1932Z" fill="#8D6C5C"/>
<path fill-rule="evenodd" clip-rule="evenodd" d="M33.8811 25.1254C32.9064 24.8756 32.8669 25.4787 32.1242 25.254C31.3176 25.7954 29.9285 27.7208 29.3239 28.6991C28.8121 29.5271 27.6168 32.2463 27.7991 33.1861C27.9045 34.2557 29.0779 35.3302 29.7817 36.0007C31.1373 37.292 32.324 37.4209 32.6179 37.8559C32.6364 37.8692 32.6683 37.9066 32.8851 37.9538L35.4427 38.4587C35.5086 38.5704 35.5174 38.3883 35.5364 38.7855C35.949 38.3519 36.1947 38.6191 37.3395 38.6233C38.0422 38.6259 38.785 38.5959 39.4596 38.6062C39.5122 39.4211 39.4686 38.7862 39.6746 39.0419L39.6997 38.5412C40.7155 38.484 42.1216 38.1971 43.0196 37.797L44.0538 37.4102C44.1621 37.1276 44.1804 37.1589 44.6289 36.8438C46.0812 35.8236 47.2564 33.8812 47.63 32.0946C47.483 31.9014 47.5856 32.1712 47.4717 31.6891C47.4398 31.554 47.4334 31.4423 47.4123 31.3084C46.9687 28.4935 44.7649 25.967 43.6708 22.5737C43.4172 21.7874 43.4494 21.4009 43.2534 21.0531C42.9036 21.2089 42.4354 21.7119 42.1978 21.9214C39.8713 23.9741 37.9009 24.8021 34.9901 25.7564C34.5389 25.9042 34.0152 26.0239 33.5387 26.0864C33.6834 25.5356 34.0022 25.6606 33.8811 25.1254Z" fill="#FDD39C"/>
<path fill-rule="evenodd" clip-rule="evenodd" d="M4.18514 18.2886C4.5626 18.7597 4.16418 18.5973 4.43818 19.0732C4.44912 18.3752 4.53335 19.1845 4.76121 18.2953C4.82803 18.0348 4.86372 17.7018 4.90524 17.4284C4.99618 16.8295 5.10412 16.212 5.16934 15.6002C5.31444 14.239 5.35043 12.9936 5.45837 11.6396C6.26609 12.0932 5.39457 13.1423 7.97817 11.2473C10.5718 9.34511 10.7086 7.86435 11.6759 6.25033C11.7975 6.40992 11.7077 6.21131 11.8251 6.52722C12.0159 7.04039 11.9412 7.40531 12.4797 8.21976C12.826 8.74364 13.2559 9.26342 13.8101 9.67987C14.2584 10.0168 15.0496 10.4114 15.7395 10.5371C16.9399 10.7559 17.1495 10.4877 17.5896 9.76486C17.914 9.90192 18.0721 10.0935 18.2956 10.3231C18.6024 10.6382 18.5267 10.5893 18.9157 10.8329C19.4288 11.1541 19.8477 11.4009 20.4492 11.6139C21.1826 11.8735 21.6507 11.9945 22.5051 11.9302C23.3039 11.87 23.9794 11.2732 23.9842 11.2579C23.9966 11.219 24.0353 11.2246 24.0614 11.2086C24.8355 11.5149 26.2884 12.6655 26.8564 13.4861C26.9944 13.6855 27.2713 14.341 27.3588 14.4133C27.6762 14.31 28.4346 13.5363 28.6901 13.3189C29.0814 12.986 29.8448 12.4793 30.1043 12.1932C29.9725 10.1016 29.9554 8.42629 28.3041 7.01205C27.7568 6.54342 27.5011 6.49546 26.8748 6.12604C26.9332 5.97265 28.5597 4.52296 26.9125 3.60586C25.748 2.95756 24.4927 3.4311 23.3429 3.16027C24.8545 2.961 26.1148 0.658797 23.9125 0.249848C20.3305 -0.415308 14.5066 0.250639 11.5539 2.21178C10.7365 2.75475 10.5968 3.12469 10.0022 3.71958C9.93061 3.74976 5.66025 2.99396 4.36254 8.51024C3.54808 11.9724 3.94767 15.0293 4.18514 18.2886Z" fill="#FAB436"/>
<path fill-rule="evenodd" clip-rule="evenodd" d="M31.0295 64.2646C31.2924 70.7324 31.8879 74.026 32.8074 79.9412C33.018 81.296 33.0207 81.5069 33.6832 81.6301C34.7368 81.6463 35.6926 81.6723 36.7391 81.5048L37.1853 81.3223C37.4301 80.0429 37.0085 75.6039 36.9809 73.9678C36.9675 73.1768 36.8903 67.8952 37.143 67.0826C37.2676 66.6825 37.145 66.9262 37.3631 66.7182C37.9075 67.8165 37.5908 72.669 37.6893 74.3025L38.0091 80.8846C38.0857 81.4708 37.9965 81.4029 38.424 81.5035C39.2061 81.6817 40.6432 81.6903 41.4594 81.6001C41.9226 81.2624 41.8507 80.1261 41.9085 79.5442C42.1021 77.595 42.6217 75.1 42.9055 73.0702C43.3084 70.1883 43.8258 67.1053 44.0809 64.2352C43.3338 64.2439 42.6625 64.4161 41.8669 64.2949C41.6184 63.8518 41.5499 62.8029 41.4922 62.2033L41.0034 62.23C38.2055 62.4533 36.1637 62.5415 33.6055 61.814L33.2111 64.2523C32.4553 64.4505 31.8242 64.2718 31.0295 64.2646Z" fill="#393D3E"/>
<path fill-rule="evenodd" clip-rule="evenodd" d="M36.8651 90.0214V90.6599C37.2431 91.0518 37.2232 91.9969 37.0329 92.5162C36.1595 93.3141 32.7935 93.1556 31.7301 92.7867C31.7723 92.2168 31.9441 92.2034 32.328 91.9676C32.9946 91.5583 34.19 90.8599 34.9972 90.9406L34.7597 89.8433L34.6617 90.115C33.8928 90.2098 33.1827 90.2963 32.4575 90.4165C32.0082 90.4909 30.8231 90.8245 30.5434 90.819C30.0634 90.8095 27.8205 89.9487 26.6034 90.0214C26.8647 90.2599 27.1354 90.2943 27.4431 90.4773C28.1905 90.922 28.8263 91.915 28.5249 92.7524C27.6346 93.1024 23.3747 92.9949 22.1994 92.9341C19.0968 92.7739 19.6476 91.9124 19.4769 89.2236L19.2642 89.1755C19.3316 89.4449 19.3653 89.2582 19.2635 89.3855C18.2058 89.1933 16.1575 89.3747 15.3953 89.3256C15.1747 89.3114 15.2437 89.4306 15.1931 89.2196L14.839 89.3929C15.0766 92.4689 14.337 92.8273 12.0003 92.9394C10.8932 92.9927 6.56807 93.0757 5.78141 92.7394C5.5583 91.514 6.43298 90.6567 7.23584 90.3055C8.55742 89.7276 9.83788 90.2771 10.4333 89.5607C9.30018 89.5192 1.16155 90.3491 1.01318 92.0699C0.811678 94.4052 13.0198 94.9098 13.9033 94.9402C19.1588 95.1211 25.3144 94.957 30.1982 93.5256C30.8214 93.343 31.0967 93.589 31.7703 93.7424C32.8427 93.9867 34.1653 94.1515 35.319 94.2234C37.9136 94.3854 40.3472 94.3829 42.901 94.0458C44.2202 93.8716 49.4094 92.9519 47.0681 91.3748C45.7816 90.5083 42.2851 90.0269 40.4189 90.0405L40.4896 89.5188C40.2885 89.816 40.1554 90.531 40.2402 90.9242C41.2266 90.9364 43.2404 91.9087 43.4578 92.6277C42.8817 93.4034 39.1095 93.1085 38.2324 92.6262C37.8933 92.0846 37.9508 90.9882 38.3318 90.6501V90.0214H37.6119H36.8651Z" fill="white"/>
<path fill-rule="evenodd" clip-rule="evenodd" d="M26.1424 33.8685C26.2263 34.3001 26.3276 34.1749 26.4986 34.5834C26.8111 34.8236 27.2034 35.4154 27.4989 35.7153C27.6752 35.8942 27.8 36.0119 28.0251 36.1939L28.6707 36.6793C29.7621 37.2834 31.2147 37.7129 32.618 37.8559C32.324 37.4209 31.1373 37.292 29.7817 36.0007C29.078 35.3302 27.9045 34.2557 27.7991 33.1861C25.9863 30.993 28.6955 25.9558 29.7526 24.6518C31.4618 22.5436 32.398 22.1999 34.7914 20.9846C35.5725 20.5878 36.2635 20.0083 36.5555 19.8637C36.1794 20.6519 35.2192 22.027 34.9957 22.7431C37.4881 22.1757 40.8305 20.3833 42.8158 18.7435C43.0115 18.5818 43.4816 18.1375 43.7628 17.9823C44.0129 22.7931 47.326 23.9747 47.9395 27.8896C48.124 29.0674 48.1072 31.1024 47.63 32.0946C47.2564 33.8812 46.0812 35.8236 44.6289 36.8438C44.1804 37.1589 44.1621 37.1276 44.0538 37.4102C45.2908 37.1834 45.5993 37.1311 46.4168 36.516C46.9371 36.1245 47.9806 35.3633 48.1092 34.9311C49.0748 30.6547 49.7994 28.6609 48.0726 24.4025C47.1499 22.1269 44.3705 17.5701 44.8702 14.9896C44.0948 15.1843 42.7889 15.9388 42.0516 16.3021C41.3805 16.633 39.9851 17.4194 39.2778 17.5735C39.4295 16.8761 39.578 16.8353 39.5409 15.9836C39.3509 16.0168 38.1098 17.0032 37.7265 17.2346C34.5239 19.1678 30.3845 19.7899 27.7925 22.5756C26.7312 23.716 26.2139 24.7453 25.9957 26.2304L25.8468 26.7898C25.5522 26.3292 25.3747 25.8275 25.1217 25.3658C24.9438 26.4411 25.1059 28.8575 25.2407 29.9334C25.5039 32.0339 26.1056 33.3835 26.1424 33.8685Z" fill="#6E5245"/>
<path fill-rule="evenodd" clip-rule="evenodd" d="M27.7991 33.186C27.6168 32.2462 28.8121 29.527 29.3239 28.699C29.9285 27.7207 31.3176 25.7953 32.1242 25.2539C31.501 24.4758 32.5092 23.8623 33.3226 23.8655C34.1438 23.8687 35.1326 24.2619 34.7547 25.0993L33.8811 25.1253C34.0022 25.6605 33.6834 25.5355 33.5387 26.0863C34.0151 26.0238 34.5389 25.9041 34.9901 25.7563C37.9009 24.802 39.8713 23.974 42.1978 21.9214C42.4354 21.7118 42.9036 21.2088 43.2534 21.053C43.4494 21.4008 43.4172 21.7873 43.6708 22.5736C44.7649 25.9669 46.9687 28.4934 47.4123 31.3083C47.4333 31.4422 47.4398 31.5539 47.4717 31.689C47.5856 32.1711 47.483 31.9013 47.63 32.0945C48.1072 31.1023 48.1239 29.0673 47.9394 27.8895C47.326 23.9746 44.0129 22.793 43.7628 17.9822C43.4815 18.1374 43.0114 18.5817 42.8157 18.7434C40.8305 20.3832 37.488 22.1756 34.9957 22.743C35.2192 22.0269 36.1794 20.6518 36.5555 19.8636C36.2635 20.0082 35.5725 20.5877 34.7914 20.9845C32.398 22.1998 31.4617 22.5435 29.7526 24.6517C28.6955 25.9557 25.9863 30.9929 27.7991 33.186Z" fill="#FCBE83"/>
<path fill-rule="evenodd" clip-rule="evenodd" d="M4.4382 19.0733C4.61995 20.3309 6.1657 20.0314 6.4534 17.9756C6.6284 16.7247 6.63236 15.0027 6.70813 13.646C7.87329 13.1065 8.47503 13.0932 9.49667 12.2066C10.879 11.007 10.9432 10.2316 11.3165 9.84133C11.6742 11.2102 12.3635 12.1935 13.4527 12.7108C14.4047 13.1629 15.4273 13.2684 16.4709 12.9381C17.9935 12.4563 17.3092 12.1341 18.9279 13.3828C20.2093 14.3712 21.0265 14.64 22.7206 14.7028C24.623 14.7731 24.0567 14.288 24.2846 13.729C25.247 13.8612 26.3556 14.5777 26.5514 15.3898C26.8465 15.0069 27.1419 14.8647 27.3588 14.4134C27.2713 14.341 26.9944 13.6855 26.8564 13.4861C26.2884 12.6656 24.8355 11.5149 24.0614 11.2086C24.0353 11.2246 23.9966 11.2191 23.9842 11.2579C23.9795 11.2732 23.3039 11.8701 22.5051 11.9302C21.6508 11.9945 21.1826 11.8735 20.4492 11.6139C19.8478 11.4009 19.4288 11.1541 18.9157 10.8329C18.5267 10.5894 18.6025 10.6383 18.2957 10.3232C18.0721 10.0936 17.914 9.90196 17.5897 9.7649C17.1495 10.4878 16.94 10.756 15.7395 10.5372C15.0496 10.4114 14.2585 10.0169 13.8101 9.67991C13.2559 9.26346 12.826 8.74368 12.4797 8.2198C11.9412 7.40534 12.0159 7.04043 11.8251 6.52726C11.7077 6.21135 11.7976 6.40996 11.6759 6.25037C10.7086 7.86439 10.5718 9.34515 7.9782 11.2474C5.3946 13.1424 6.26611 12.0932 5.45839 11.6396C5.35045 12.9936 5.31446 14.239 5.16936 15.6003C5.10415 16.212 4.99621 16.8296 4.90527 17.4284C4.86374 17.7019 4.82805 18.0348 4.76123 18.2953C4.53337 19.1845 4.44914 18.3752 4.4382 19.0733Z" fill="#F89C2F"/>
<path fill-rule="evenodd" clip-rule="evenodd" d="M32.0122 40.9099L32.0404 41.3247C31.9788 43.0019 31.8008 44.6272 31.8976 46.2938C31.9848 47.797 32.3872 49.3109 32.4802 50.6877C32.8721 53.0074 31.9621 55.2033 31.2588 57.4105C30.9082 58.5108 29.3233 63.0596 29.3257 63.8135L31.0295 64.2645C31.8242 64.2718 32.4553 64.4505 33.2111 64.2523L33.6055 61.8139C33.6394 60.82 33.789 59.593 33.9309 58.5937C34.0378 57.8409 34.0396 56.175 34.1618 55.6676C34.4684 53.2922 34.508 50.5855 34.1086 48.3032C34.0358 46.3135 34.4302 43.9 34.655 41.9276C34.7362 41.2064 34.9201 40.3607 34.7143 39.6355C34.575 39.5161 34.9693 39.5 34.3972 39.5686C34.0473 39.6107 32.3094 40.2918 32.0122 40.9099Z" fill="#CA8A04"/>
<path fill-rule="evenodd" clip-rule="evenodd" d="M40.2451 41.0622C40.5483 41.6603 40.9426 47.7924 40.9025 48.861C40.4487 50.3443 40.6333 53.7505 40.8208 55.4442C41.0148 56.0572 40.9829 57.8105 41.1226 58.7115C41.2969 59.8363 41.3958 61.0811 41.4663 62.1878L41.0034 62.2299L41.4922 62.2032C41.5499 62.8028 41.6184 63.8517 41.8669 64.2948C42.6625 64.416 43.3338 64.2438 44.0809 64.2351L45.7244 63.8696C45.6335 62.9307 45.0278 61.4033 44.7189 60.4496C44.1908 58.8187 42.3626 53.3603 42.3675 51.875C42.3695 51.2659 42.7139 50.5595 42.5933 50.0093C43.2613 47.1667 43.1694 44.1773 42.9627 41.1986C43.0448 40.5121 42.6241 40.4382 42.1171 40.1758C41.7251 39.9729 41.1494 39.683 40.6802 39.6126L40.2054 39.5809L40.2451 41.0622Z" fill="#CA8A04"/>
<path fill-rule="evenodd" clip-rule="evenodd" d="M10.3282 33.4755C10.7228 34.1003 11.2473 37.1777 12.2787 38.4385C13.4981 39.9292 16.0153 37.264 16.697 36.8233C17.1828 37.1451 17.438 37.6109 18.6599 38.3104C20.656 39.4533 21.1935 38.9883 22.2563 36.0052C22.5338 35.2259 23.1405 33.9523 22.8346 33.1302C22.7965 32.96 22.821 33.016 22.6291 32.8905C22.5507 32.8392 22.4229 32.7883 22.3213 32.7497C21.5153 32.4434 20.5479 32.3247 19.6889 32.4693L17.4732 34.9085C17.3516 35.0423 17.2242 35.1613 17.092 35.3075C16.9988 35.4107 16.9762 35.445 16.8812 35.5434C16.7726 35.6558 16.7987 35.6323 16.697 35.7146C16.1631 35.3748 14.3789 32.918 13.5405 32.457C12.5536 32.2608 10.5408 32.4809 10.3282 33.4755Z" fill="#164E63"/>
<path fill-rule="evenodd" clip-rule="evenodd" d="M42.5933 50.0094C42.6979 50.0959 42.7032 49.9207 42.8332 50.5175C42.8695 50.6844 42.8869 50.9145 42.9166 51.0899C42.9801 51.465 43.0577 51.8157 43.1507 52.1955L44.3728 56.3355C44.5849 56.9277 44.8278 57.7966 45.3287 58.0353C45.9608 58.0889 46.659 58.0765 47.1841 57.6925L47.405 57.5071C47.6205 57.0401 46.8556 53.9832 46.7157 53.2163C46.0992 49.8392 46.3527 46.0834 45.8543 43.5813C45.6618 42.6153 43.7926 41.4731 42.9627 41.1987C43.1695 44.1774 43.2613 47.1668 42.5933 50.0094Z" fill="#A16207"/>
<path fill-rule="evenodd" clip-rule="evenodd" d="M34.1618 55.6676C34.0397 56.175 34.0378 57.8409 33.9309 58.5937C33.789 59.593 33.6394 60.82 33.6056 61.814C36.1637 62.5415 38.2055 62.4532 41.0034 62.23L41.4664 62.188C41.3959 61.0812 41.2969 59.8364 41.1227 58.7116C40.983 57.8106 41.0148 56.0573 40.8208 55.4443C40.232 55.4443 39.7642 55.6212 39.2098 55.7171C38.8866 55.773 38.0051 55.8895 37.5671 55.8952C36.2492 55.9123 35.3545 55.6676 34.1618 55.6676Z" fill="#A16207"/>
<path fill-rule="evenodd" clip-rule="evenodd" d="M29.1176 46.0845C29.2742 47.4354 28.8376 51.8711 28.5681 53.2065C28.3634 54.2213 28.0886 55.3398 27.904 56.3663C27.5974 58.0707 28.422 58.2084 29.9747 58.0445C30.4877 57.7084 31.1984 55.4074 31.449 54.57C31.6277 53.9727 31.799 53.3271 31.9747 52.6394C32.0822 52.2182 32.1822 50.8392 32.4802 50.6876C32.3872 49.3108 31.9848 47.797 31.8976 46.2938C31.8008 44.6272 31.9788 43.0018 32.0404 41.3247C31.5826 41.4632 30.0313 42.4879 29.7319 42.8151C29.1541 43.4468 29.1303 45.1035 29.1176 46.0845Z" fill="#A16207"/>
<path fill-rule="evenodd" clip-rule="evenodd" d="M4.43821 19.0732C4.16421 18.5974 4.56263 18.7597 4.18517 18.2886C4.2441 18.8691 3.93043 19.3055 3.84503 19.9442C3.75701 20.6044 3.77201 21.2084 3.95995 21.7646C4.23144 22.5684 4.97406 23.9405 5.90844 24.0364C6.35692 23.928 6.0301 23.3277 5.9211 22.0605C5.8593 21.3416 5.73157 20.3515 5.77297 19.7368C6.94972 19.2156 7.25716 17.7627 7.50453 16.4623C7.6262 15.8224 7.55184 15.5322 7.62248 15.1035C7.68982 14.6939 8.81451 14.5305 9.62859 14.009C9.9582 13.7979 10.2169 13.6103 10.4585 13.3964C10.5506 13.315 10.6873 13.187 10.8051 13.0683L11.2295 12.6669C11.6001 12.8961 12.15 14.1064 13.5008 14.4086C14.0867 14.5396 14.7499 14.473 15.2736 14.2957C15.5553 14.2004 15.7648 14.1208 15.9718 13.9837C16.0783 13.9132 16.1696 13.8208 16.2949 13.75C17.0364 13.3313 16.4932 14.1387 18.1863 15.5758C18.8168 16.111 19.7711 16.6408 20.6359 16.77C19.1001 14.5901 23.7061 14.9504 23.0315 16.7979C23.5682 16.5927 23.8651 16.4795 24.3137 16.3295C24.8501 16.1503 25.3001 16.2679 25.7694 16.3247C25.8991 16.2146 26.4063 15.5992 26.5515 15.3898C26.3556 14.5777 25.247 13.8611 24.2846 13.729C24.0567 14.288 24.623 14.7731 22.7206 14.7027C21.0265 14.64 20.2093 14.3712 18.9279 13.3827C17.3092 12.134 17.9935 12.4563 16.4709 12.9381C15.4273 13.2683 14.4047 13.1629 13.4527 12.7107C12.3635 12.1935 11.6742 11.2102 11.3165 9.84131C10.9432 10.2315 10.879 11.007 9.49667 12.2065C8.47503 13.0932 7.87329 13.1065 6.70813 13.6459C6.63236 15.0027 6.62841 16.7247 6.4534 17.9756C6.16571 20.0314 4.61995 20.3309 4.43821 19.0732Z" fill="#FCBE83"/>
<path fill-rule="evenodd" clip-rule="evenodd" d="M34.655 41.9277C34.4301 43.9001 34.0358 46.3135 34.1086 48.3033C34.6364 48.3411 34.5208 48.391 34.9201 48.5546L35.3321 48.6922C36.7026 49.1541 40.5404 49.5593 40.9025 48.8611C40.9426 47.7926 40.5483 41.6604 40.245 41.0624L40.2957 41.6089C39.9463 41.8534 39.3896 41.9852 38.9584 42.1025C37.9907 42.3658 36.9551 42.4899 35.9522 42.3207C35.3645 42.2216 35.1766 42.0293 34.655 41.9277Z" fill="#A16207"/>
<path fill-rule="evenodd" clip-rule="evenodd" d="M34.1618 55.6676C35.3545 55.6676 36.2492 55.9123 37.5671 55.8952C38.0051 55.8895 38.8866 55.773 39.2097 55.7171C39.7642 55.6212 40.232 55.4443 40.8208 55.4443C40.6333 53.7506 40.4487 50.3444 40.9026 48.8611C40.5404 49.5593 36.7026 49.1541 35.3321 48.6921L34.9201 48.5545C34.5208 48.391 34.6364 48.341 34.1086 48.3032C34.508 50.5855 34.4684 53.2922 34.1618 55.6676Z" fill="#A16207"/>
<path fill-rule="evenodd" clip-rule="evenodd" d="M25.0657 41.9728C24.1615 41.7917 22.8805 41.7355 21.9412 41.7239C20.1192 41.7015 19.3454 41.3341 19.6234 46.1868C19.7122 47.7355 19.8573 47.7887 20.7215 48.519C21.279 48.99 22.097 49.5038 23.0722 49.1008C23.8449 48.7815 24.8241 48.2654 25.1446 47.7154C25.4412 47.2062 25.7268 43.793 25.6487 43.1624C25.5961 42.7387 25.3259 42.5443 25.0657 41.9728Z" fill="#164E63"/>
<path fill-rule="evenodd" clip-rule="evenodd" d="M27.2979 59.4138C27.2548 60.2372 27.1998 61.4892 26.7446 62.0334C26.3788 62.4708 25.635 63.0447 25.3454 63.5363C24.9635 64.1844 25.0339 65.1649 25.148 65.9837C25.2638 66.8151 25.2928 67.8429 26.1948 67.6067C26.5235 66.819 26.14 65.8714 26.4382 64.8638C26.5753 64.4007 26.6434 64.3559 27.0169 64.2119C27.2055 64.059 27.0984 64.1205 27.2979 64.2593C27.3228 65.1429 27.2375 65.6142 27.4504 66.4358C28.0505 66.4229 28.1955 66.3918 28.3986 65.8999C28.526 65.5911 28.6235 65.0596 28.6793 64.695C29.0339 62.3724 27.8047 64.4046 29.1999 60.1163C29.4222 59.4331 29.6242 58.7575 29.9746 58.0445C28.422 58.2085 27.5974 58.0707 27.904 56.3663C27.6993 57.3811 28.0886 55.3398 27.904 56.3663C27.1542 55.9799 28.6098 56.7483 27.904 56.3663C27.6693 57.9964 27.2979 59.4138 27.2979 59.4138Z" fill="#FDE6C8"/>
<path fill-rule="evenodd" clip-rule="evenodd" d="M10.4331 89.6459C9.8377 90.3623 8.55724 89.8128 7.23566 90.3907C6.43279 90.7419 5.55812 91.5992 5.78123 92.8246C6.56788 93.1609 10.8931 93.0779 12.0001 93.0246C14.3368 92.9124 15.0764 92.5541 14.8388 89.478C13.7773 89.5779 11.7208 89.6802 10.8061 89.387C10.596 89.7637 10.8502 89.584 10.4331 89.6459Z" fill="#6E5245"/>
<path fill-rule="evenodd" clip-rule="evenodd" d="M26.6032 90.1065C25.6969 90.2358 24.0702 90.0706 23.612 89.4825C22.6159 89.6942 20.2594 89.826 19.4767 89.3088C19.6474 91.9976 19.0967 92.8591 22.1992 93.0193C23.3745 93.0801 27.6345 93.1876 28.5247 92.8376C28.8261 92.0002 28.1904 91.0072 27.443 90.5625C27.1353 90.3795 26.8646 90.3451 26.6032 90.1065Z" fill="#6E5245"/>
<path fill-rule="evenodd" clip-rule="evenodd" d="M34.7595 89.9286L34.997 91.0258C36.0772 91.2831 36.0109 90.8796 36.8649 90.7451L36.7391 81.5048C35.6925 81.6723 34.7368 81.6463 33.6832 81.6301C33.8132 82.0804 33.8221 83.1882 33.8915 83.7644C33.9697 84.4108 34.0316 85.2636 34.1352 85.8911C34.3001 86.8898 34.7387 89.0133 34.7595 89.9286Z" fill="#FDD39C"/>
<path fill-rule="evenodd" clip-rule="evenodd" d="M38.3316 90.7353C39.1992 90.9905 39.242 91.2666 40.2401 91.0095C40.1552 90.6162 40.2883 89.9013 40.4894 89.6041C40.483 88.664 40.9297 86.8024 41.0699 85.7308C41.2494 84.3578 41.3756 82.9709 41.4594 81.6C40.6432 81.6903 39.2061 81.6816 38.424 81.5034L38.3316 90.7353Z" fill="#FDD39C"/>
<path fill-rule="evenodd" clip-rule="evenodd" d="M5.17645 55.1367C5.15987 55.1557 5.14576 55.1674 5.14219 55.204C5.13864 55.2423 5.11583 55.2593 5.11122 55.2767C4.85714 56.2375 4.74972 58.3087 5.05141 59.4002C5.36044 60.5187 6.20941 62.0167 7.55329 61.7644L7.46682 60.2706C7.33359 60.1112 7.4203 60.2444 7.31896 60.0249C7.03746 59.4143 6.91356 58.0305 6.95943 57.4186C7.69364 57.9032 7.69929 59.4782 8.32845 59.4231C9.4186 59.3276 8.54565 54.9382 7.23277 53.8986C6.90988 54.0661 6.55285 54.342 6.20731 54.5514C5.88865 54.7445 5.53506 54.872 5.17645 55.1367Z" fill="#FCBE83"/>
<path fill-rule="evenodd" clip-rule="evenodd" d="M45.3287 58.0353C45.6667 58.689 46.6201 61.3428 46.7564 62.2026C46.8801 62.984 46.2826 64.497 46.8912 65.8637C46.9762 66.0548 47.0143 66.1524 47.1802 66.2585C48.0592 66.821 47.8003 65.0807 47.8144 64.6871C47.8461 63.8038 48.3033 63.997 48.6085 64.489C49.1387 65.3432 48.7068 66.5183 48.9922 67.5631L49.569 67.7045C50.035 67.0771 50.1494 65.9041 50.1721 64.9259C50.2008 63.6913 49.8279 63.3522 49.1031 62.6488C48.0901 61.6655 48.3339 61.8437 47.967 60.4346C47.7779 59.7082 47.3 58.119 47.405 57.5071L47.1841 57.6925C46.659 58.0765 45.9608 58.0889 45.3287 58.0353Z" fill="#FDD39C"/>
<path fill-rule="evenodd" clip-rule="evenodd" d="M35.5364 38.7856C35.3907 39.275 35.2542 39.529 34.7143 39.6355C34.9201 40.3607 34.7361 41.2064 34.655 41.9277C35.1766 42.0293 35.3645 42.2215 35.9522 42.3207C36.9551 42.4899 37.9907 42.3657 38.9584 42.1024C39.3896 41.9851 39.9463 41.8533 40.2957 41.6089L40.2451 41.0623L40.2054 39.581L40.6802 39.6127C40.332 39.3586 39.9464 39.4772 39.6745 39.0419C39.4685 38.7862 39.5122 39.4212 39.4596 38.6062C38.785 38.5959 38.0422 38.626 37.3395 38.6233C36.1947 38.6191 35.949 38.352 35.5364 38.7856Z" fill="#FCBE83"/>
<path fill-rule="evenodd" clip-rule="evenodd" d="M13.5404 32.4571C14.3789 32.9181 16.163 35.3749 16.697 35.7147C16.7986 35.6324 16.7725 35.6559 16.8811 35.5435C16.9761 35.4452 16.9988 35.4108 17.092 35.3076C17.2242 35.1614 17.3516 35.0424 17.4731 34.9086L19.6889 32.4694L19.5077 31.0783C18.4581 31.115 17.5328 31.1929 16.4738 31.1474C15.7027 31.1143 14.2286 30.798 13.6722 30.9985L13.5404 32.4571Z" fill="#FCBE83"/>
<path fill-rule="evenodd" clip-rule="evenodd" d="M19.1018 87.5416C19.0887 88.1086 19.0653 88.8405 19.2641 89.2608L19.4768 89.3089C20.2595 89.826 22.616 89.6942 23.612 89.4826C24.1293 89.2867 24.1072 89.1028 24.2603 88.4467C24.3797 87.9355 24.4857 87.4648 24.5688 86.931C23.407 87.2663 20.573 87.593 19.1018 87.5416Z" fill="#164E63"/>
<path fill-rule="evenodd" clip-rule="evenodd" d="M3.6244 53.4812C3.43303 53.9495 3.41207 54.2463 3.81365 54.7152C4.21745 55.1868 4.45098 55.2113 5.17646 55.1368C5.53507 54.872 5.88866 54.7446 6.20732 54.5515C6.55286 54.3421 6.90988 54.0661 7.23277 53.8986C7.45168 53.6113 7.58437 53.6267 7.67545 53.2144C7.75228 52.8659 7.72224 52.4742 7.60876 52.138C7.15553 50.7955 5.56631 51.8452 4.85622 52.4194C4.6393 52.5948 4.46086 52.7582 4.25777 52.9367C4.10661 53.0698 4.10449 53.0813 3.96902 53.2038C3.75843 53.3942 3.88217 53.3181 3.6244 53.4812Z" fill="#164E63"/>
<path fill-rule="evenodd" clip-rule="evenodd" d="M40.24 91.0095C39.242 91.2666 39.1992 90.9905 38.3316 90.7354C37.9506 91.0734 37.8931 92.1699 38.2322 92.7114C39.1093 93.1938 42.8815 93.4887 43.4577 92.713C43.2402 91.994 41.2264 91.0216 40.24 91.0095Z" fill="#33435A"/>
<path fill-rule="evenodd" clip-rule="evenodd" d="M34.997 91.0259C34.1898 90.9453 32.9944 91.6436 32.3279 92.053C31.944 92.2888 31.7721 92.3022 31.7299 92.8721C32.7933 93.2409 36.1594 93.3994 37.0327 92.6016C37.223 92.0822 37.2429 91.1372 36.8649 90.7452C36.0109 90.8797 36.0773 91.2832 34.997 91.0259Z" fill="#33435A"/>
<path fill-rule="evenodd" clip-rule="evenodd" d="M41.946 26.8673C41.2711 27.1106 41.1668 27.9324 41.2526 28.6581C41.3331 29.3386 41.9014 29.9401 42.6862 29.5553C43.6993 29.0583 43.6061 26.2691 41.946 26.8673Z" fill="#564E48"/>
<path fill-rule="evenodd" clip-rule="evenodd" d="M33.0681 26.7101C31.9898 27.0447 32.0134 30.0797 33.6816 29.4777C34.8565 29.0537 34.6782 26.2102 33.0681 26.7101Z" fill="#564E48"/>
<path fill-rule="evenodd" clip-rule="evenodd" d="M12.3136 18.8027C11.9279 19.0278 11.7326 19.8059 11.836 20.4793C11.9286 21.0812 12.4444 21.5101 13.122 21.1884C14.2262 20.6643 13.7492 17.9648 12.3136 18.8027Z" fill="#564E48"/>
<path fill-rule="evenodd" clip-rule="evenodd" d="M21.5851 18.5847C20.6613 19.16 21.0691 21.8221 22.4378 20.9113C23.4084 20.2654 22.9089 17.7608 21.5851 18.5847Z" fill="#564E48"/>
<path fill-rule="evenodd" clip-rule="evenodd" d="M20.6358 16.77L23.0315 16.7979C23.7061 14.9504 19.1001 14.59 20.6358 16.77Z" fill="#F89C2F"/>
<path fill-rule="evenodd" clip-rule="evenodd" d="M12.0474 15.3684C11.4766 15.4904 10.8269 15.7239 10.7781 16.2971C10.7076 17.1262 11.707 16.6786 12.3462 16.701C13.0793 16.7267 13.7384 16.7427 13.5801 15.8518C13.4591 15.1709 12.6039 15.2492 12.0474 15.3684Z" fill="#F89C2F"/>
<path fill-rule="evenodd" clip-rule="evenodd" d="M32.1243 25.254C32.8669 25.4787 32.9065 24.8757 33.8812 25.1254L34.7548 25.0994C35.1326 24.262 34.1438 23.8688 33.3226 23.8656C32.5092 23.8624 31.5011 24.4759 32.1243 25.254Z" fill="#6E5245"/>
<path fill-rule="evenodd" clip-rule="evenodd" d="M41.7335 23.6211C41.3315 23.7246 40.3269 24.262 40.8102 24.7478C41.1645 25.1039 41.6427 24.3843 42.6107 24.7403C44.3209 25.3693 43.6383 23.1308 41.7335 23.6211Z" fill="#6E5245"/>
<path fill-rule="evenodd" clip-rule="evenodd" d="M30.5616 30.8953C31.4314 31.6324 33.0286 31.1253 32.6598 30.3342C32.4847 29.9586 31.9408 29.8049 31.3558 29.9359C30.7939 30.0616 30.5402 30.2928 30.5616 30.8953Z" fill="#F15A51"/>
<path fill-rule="evenodd" clip-rule="evenodd" d="M42.8133 30.9229C43.6435 31.59 45.2925 31.1651 44.8866 30.2975C44.5871 29.6577 42.765 29.6829 42.8133 30.9229Z" fill="#F15A51"/>
<path fill-rule="evenodd" clip-rule="evenodd" d="M42.7821 26.6291C42.9869 26.5568 43.0286 26.5885 43.1316 26.3494C43.2754 26.0156 42.9874 26.0508 42.8932 26.0206C42.6589 26.2756 42.5975 26.3377 42.7821 26.6291Z" fill="#745944"/>
<path fill-rule="evenodd" clip-rule="evenodd" d="M43.2821 26.8878C43.2867 26.8904 43.3324 27.1913 43.7223 26.9605C43.89 26.8614 43.851 26.7825 43.8702 26.5744C43.5399 26.5661 43.3788 26.5691 43.2821 26.8878Z" fill="#745944"/>
<path fill-rule="evenodd" clip-rule="evenodd" d="M43.4971 27.6637C43.8193 27.8723 43.8528 27.7947 44.0762 27.6539C44.0356 27.4325 44.0982 27.3513 43.8164 27.3799C43.6272 27.399 43.5343 27.479 43.4971 27.6637Z" fill="#745944"/>
<path fill-rule="evenodd" clip-rule="evenodd" d="M31.1657 27.7785C31.3791 27.8456 31.318 27.8656 31.5988 27.7844C32.1221 27.6333 31.9345 27.6864 32.0082 27.4187C31.6 27.2703 31.2291 27.2228 31.1657 27.7785Z" fill="#77574A"/>
<path fill-rule="evenodd" clip-rule="evenodd" d="M32.587 26.453C32.6938 26.0931 32.6379 25.9914 32.2822 25.936C32.0456 26.2759 32.172 26.3798 32.587 26.453Z" fill="#77574A"/>
<path fill-rule="evenodd" clip-rule="evenodd" d="M31.5712 26.7725C31.7371 27.0332 31.8046 27.1214 32.1355 26.9938C32.0791 26.8015 32.1662 26.8028 31.9738 26.7053C31.5879 26.5096 31.5769 26.7691 31.5712 26.7725Z" fill="#77574A"/>
<path fill-rule="evenodd" clip-rule="evenodd" d="M36.8874 30.9878C37.4384 31.0496 37.0005 30.7924 37.701 30.9696C37.8329 31.8005 37.2211 31.2016 37.1687 32.0708C38.0795 32.1213 38.3393 31.6603 38.1996 30.7862C37.7651 30.432 36.8681 30.1135 36.8874 30.9878Z" fill="#F89059"/>
<path fill-rule="evenodd" clip-rule="evenodd" d="M36.1899 33.6995C36.3321 34.0341 36.3422 33.9724 36.7726 34.1099C37.4912 34.3393 38.784 34.2925 38.8434 33.4779C38.4506 33.3244 38.1472 33.6631 37.6349 33.7402C36.9833 33.8381 36.6949 33.6292 36.4921 33.6209C35.7866 33.5919 37.0274 33.5138 36.3344 33.6366C36.3153 33.6399 36.2763 33.6605 36.2612 33.6644C36.2458 33.6685 36.2115 33.6843 36.1899 33.6995Z" fill="#F89059"/>
<path fill-rule="evenodd" clip-rule="evenodd" d="M37.2199 34.6964C37.2833 34.8461 37.1178 34.8932 37.5234 34.9348C38.0478 34.9888 37.9225 34.8415 38.0093 34.6964C37.7146 34.5516 37.528 34.4861 37.2199 34.6964Z" fill="#F89059"/>
<path fill-rule="evenodd" clip-rule="evenodd" d="M15.9257 22.9679C16.3904 22.9662 16.8523 22.4379 16.9144 23.09C16.9673 23.6444 16.3945 23.4635 15.9751 23.6435C15.9848 24.5869 17.5913 24.0701 17.4981 22.9766C17.416 22.0126 15.8786 21.8552 15.9257 22.9679Z" fill="#F58D55"/>
<path fill-rule="evenodd" clip-rule="evenodd" d="M17.9513 25.8857C17.3663 25.5699 17.4454 26.0378 16.5715 26.0929C15.8124 26.1409 15.7301 25.7885 15.1255 25.7433C15.2393 26.7802 17.2839 26.8557 17.7752 26.3028C18.0525 25.9908 17.876 26.3864 17.9513 25.8857Z" fill="#F58D55"/>
<path fill-rule="evenodd" clip-rule="evenodd" d="M16.1548 27.0071C16.2453 27.1447 16.1655 27.2248 16.4911 27.2355C16.9592 27.2508 16.7895 27.1153 16.8564 27.0071C16.7783 26.9639 16.6595 26.6713 16.1548 27.0071Z" fill="#F9A765"/>
</svg>
