<svg width="27" height="59" viewBox="0 0 27 59" fill="none" xmlns="http://www.w3.org/2000/svg">
<path fill-rule="evenodd" clip-rule="evenodd" d="M19.0456 23.8188C19.677 25.1885 19.7943 26.5548 19.8377 28.2158L19.7454 30.5138C19.5546 34.4052 20.4481 36.4875 21.001 39.882C20.6013 39.7997 20.7338 40.0284 19.8055 40.7318C16.3458 43.353 12.8637 44.277 8.50722 44.6625C8.08368 42.6785 8.22204 39.478 8.34935 37.3836C8.41956 36.2282 8.53561 35.0615 8.65378 33.9104C8.76135 32.8633 9.06834 31.3373 9.0537 30.3722L9.45234 28.4172C9.49225 27.3606 10.0611 24.9397 10.4072 24.0112C10.695 23.7751 10.81 23.7518 11.1853 23.6829C10.9296 24.089 10.4066 24.8351 10.9109 25.4469C11.3706 26.0046 12.0067 25.5902 12.5678 25.4333C12.6982 26.43 13.2481 27.3144 14.3968 27.1766C15.3632 27.0606 15.6656 26.1496 16.0383 25.3432C17.6194 25.6956 18.3877 25.5564 18.1013 23.6261C18.6213 23.6231 18.6509 23.5732 19.0456 23.8187V23.8188Z" fill="#F87171"/>
<path fill-rule="evenodd" clip-rule="evenodd" d="M25.9114 15.1874C25.9754 16.5105 25.6951 17.2717 26.0199 18.6976C26.1269 19.1677 26.2734 19.669 26.4004 20.1673C26.5133 20.6106 26.6409 21.3091 26.7666 21.6843C26.8591 22.7255 26.8383 23.6436 25.6787 23.7869C25.8258 25.3468 25.3312 26.3654 23.7349 26.3185L23.4225 26.2336C23.1892 26.7614 23.0958 27.3424 22.7633 27.7141C22.4976 28.0111 22.039 28.5099 21.5802 28.6636L21.4865 28.1652C22.6617 27.8556 22.3532 26.1748 21.7719 25.4441C21.2149 24.7441 20.0463 23.8465 19.0455 23.8187C18.6508 23.5731 18.6212 23.6231 18.1012 23.626L18.0964 23.5118L17.5191 23.5314C17.3936 23.0476 17.229 22.9781 17.2125 22.4137C18.5878 22.1245 19.4428 21.7943 20.5253 21.1242C21.1189 20.7568 22.4641 19.5133 22.5999 18.6874C23.2918 18.1093 23.1349 16.0644 22.8992 15.1772C22.3677 13.1768 21.1882 11.3611 19.5584 10.1584C19.0545 9.78672 17.2877 8.81425 16.7321 8.66421C16.9523 9.15372 17.8201 9.80046 17.1136 10.3238C16.3083 10.9202 13.2581 8.85494 12.4608 8.24955C12.1245 7.99414 12.1002 7.93164 11.7975 7.83923C11.6433 8.08579 11.5964 8.26944 11.4471 8.55822C11.2812 8.87944 11.1758 8.9173 10.9769 9.23036C10.7419 9.25217 10.5338 9.30569 10.2914 9.24034C9.76365 9.09815 10.2596 9.14473 9.84257 8.9657C9.48681 9.5919 9.28134 9.97552 8.85367 10.6357C7.61309 12.5514 6.60266 13.9423 7.16492 16.8085C7.46935 18.3609 7.95898 19.6276 8.85135 20.5499C9.93895 21.6739 10.732 21.9396 12.3857 22.4355L12.2814 23.147C12.0471 23.3198 12.3405 23.2766 11.8794 23.2391C11.4555 23.3559 11.4849 23.5159 11.1852 23.6829C10.8099 23.7517 10.6949 23.7751 10.4072 24.0112C9.35794 24.1248 8.40538 24.8283 7.90215 25.3346C7.02952 26.2125 6.90837 26.7584 7.30969 28.0118C7.19817 28.3196 7.16108 28.4953 6.83137 28.4726C6.52732 28.4044 6.3257 28.1005 6.09479 27.8744C5.80114 27.5866 5.7063 27.5141 5.26545 27.2931C4.62668 26.9729 4.18364 26.4761 3.97264 25.6962C3.78437 25.455 4.14527 25.653 3.68028 25.4292C4.01729 24.3206 4.84191 23.3675 4.39528 22.9404C4.02526 22.6849 3.65653 22.9157 3.28691 22.9765L3.03648 21.7601C2.8876 20.5046 3.52227 19.2208 3.88382 18.1637C4.23984 17.1226 4.58046 15.5983 4.65067 14.3619L4.74002 13.4577C7.18779 10.3993 7.48454 7.83253 8.10725 6.83734L9.93165 7.05629C9.91717 6.07343 9.97235 6.15312 10.1713 5.31955C11.2372 5.45879 13.194 6.44295 13.9328 6.50082C13.922 6.03301 13.7819 5.97973 13.6737 5.61448C13.3877 4.64972 13.8164 4.63523 13.8174 4.63431C14.0089 4.4545 14.0479 4.26494 14.8741 4.63395C15.8678 5.07803 16.7517 5.49897 17.6485 6.09399C18.1878 6.45181 20.692 8.12812 20.6628 8.61338L20.6072 6.3911C22.9944 7.2754 25.998 12.1344 25.9114 15.1874V15.1874Z" fill="#F89C2F"/>
<path fill-rule="evenodd" clip-rule="evenodd" d="M10.9769 9.23015C11.5687 9.52649 12.0074 10.0315 12.5639 10.4171C13.8869 11.334 16.6451 12.7959 18.2317 12.7773C18.0733 12.5285 17.9448 12.808 17.9913 12.1532L19.6175 12.3317C19.8633 12.6952 20.544 13.4031 21.2158 14.3728C21.8798 15.3313 23.0306 17.635 22.5999 18.6872C22.4641 19.5131 21.1189 20.7566 20.5253 21.124C19.4428 21.7941 18.5878 22.1243 17.2125 22.4135C17.229 22.978 17.3936 23.0474 17.5191 23.5312L18.0964 23.5116L17.3495 23.8371C15.7566 24.5326 13.2022 24.2826 12.0688 23.425C11.9023 23.299 12.0091 23.4216 11.8794 23.2389C12.3405 23.2763 12.0471 23.3196 12.2813 23.1467L12.3857 22.4353C10.732 21.9394 9.93894 21.6737 8.85133 20.5496C7.95896 19.6274 7.46933 18.3606 7.1649 16.8083C6.60264 13.9421 7.61307 12.5511 8.85365 10.6355C9.2813 9.97527 9.48679 9.59164 9.84254 8.96545C10.2595 9.14449 9.76363 9.09793 10.2914 9.2401C10.5338 9.30543 10.7419 9.25193 10.9769 9.23011L10.9769 9.23015Z" fill="#FDCE9B"/>
<path fill-rule="evenodd" clip-rule="evenodd" d="M25.9114 15.1875C25.998 12.1344 22.9943 7.27544 20.6071 6.39114L20.6627 8.61342C20.692 8.12816 18.1878 6.45185 17.6484 6.09403C16.7517 5.49903 15.8678 5.07807 14.874 4.63399C14.0478 4.26498 14.0088 4.45454 13.8174 4.63435C13.8163 4.63525 13.3877 4.64976 13.6736 5.61452C13.7818 5.97979 13.922 6.03307 13.9327 6.50086C13.194 6.44299 11.2371 5.45883 10.1712 5.31959C9.9723 6.15316 9.91711 6.07347 9.93159 7.05633L8.1072 6.83738C7.48449 7.83255 7.18774 10.3993 4.73996 13.4578C4.70414 11.7435 4.80926 9.95565 5.06595 8.37881C5.71615 3.39159 9.18991 3.08334 9.72931 2.4941C10.0999 2.08942 9.91594 1.85481 10.6107 1.31142C11.9257 0.282594 12.7667 0.360776 13.4306 0H16.2475C16.5477 0.154656 17.0487 0.219337 17.4304 0.342272C17.84 0.474094 18.203 0.621044 18.6101 0.789038C21.9137 2.15168 25.5024 5.75584 26.2638 9.432C26.5836 10.9761 26.4293 13.8592 25.9113 15.1874L25.9114 15.1875Z" fill="#FBB438"/>
<path fill-rule="evenodd" clip-rule="evenodd" d="M19.0616 46.3158L16.2464 46.5923L13.8802 46.7285L10.9944 46.7416C8.97257 46.5873 8.78568 46.6782 8.50717 44.6623C12.8637 44.2768 16.3458 43.3528 19.8054 40.7316C20.7337 40.0282 20.6013 39.7995 21.001 39.8818C21.2978 40.7112 22.3822 45.1248 22.1229 45.7405C21.5088 46.2237 19.933 46.2662 19.0616 46.3157V46.3158Z" fill="#EF4444"/>
<path fill-rule="evenodd" clip-rule="evenodd" d="M17.3607 55.0059C17.3375 55.5019 17.4919 55.1685 17.1483 55.4268C16.2508 55.5485 14.5444 56.3096 14.3901 57.0528C15.1612 57.6689 18.4385 57.5182 19.2871 56.9441C19.5209 56.37 19.4177 55.8073 19.2956 55.2265C20.4659 55.734 22.1536 55.7702 22.551 56.9441C21.7084 59.4339 11.694 59.1167 8.8749 58.7551C7.76307 58.6125 2.08578 57.5875 5.23738 56.0439C6.96875 55.1958 9.91589 54.9484 12.08 54.8494L12.1687 55.2055C11.8995 55.4872 12.3901 55.1694 11.9511 55.4344C11.0691 55.521 9.29961 56.3321 9.18769 57.0528C9.85853 57.6204 13.5463 57.578 14.1351 56.8356C14.2994 56.2692 14.2355 55.7767 14.0623 55.227L13.9594 54.788L17.3607 55.0059Z" fill="white"/>
<path fill-rule="evenodd" clip-rule="evenodd" d="M24.7252 40.0641C24.1558 40.1565 23.9554 40.3513 23.5697 39.837C23.3105 39.4913 23.2711 38.9489 22.7673 38.7852C22.3488 39.179 22.7889 39.1917 22.2243 39.3587C21.8872 39.1047 22.0283 39.3312 21.9279 38.916C21.8175 38.4593 22.0157 37.321 22.0296 36.8329C22.0515 36.0632 21.6189 35.2341 21.3817 34.6151C21.2795 34.3484 19.9297 30.5878 19.7454 30.5137L19.8377 28.2157L21.4866 28.1652L21.5803 28.6636L21.5495 28.4999C21.5495 28.4999 24.0092 34.2272 24.1676 35.6547C24.2652 36.5337 24.1757 36.6032 24.6261 37.1537C25.6968 38.462 25.2301 38.9649 24.7252 40.0641Z" fill="#FCE3B7"/>
<path fill-rule="evenodd" clip-rule="evenodd" d="M3.97262 25.6963L3.58079 25.6699C3.42654 26.6378 4.8143 29.1894 5.74146 29.325C6.06759 29.3727 6.26395 29.2535 6.44158 29.1024C6.7306 28.8563 6.7546 28.7328 6.83137 28.4727C7.16108 28.4954 7.19817 28.3197 7.3097 28.0119L7.44806 28.1305C8.01382 28.5648 8.91876 28.6074 9.45227 28.4172L9.05363 30.3723L9.00038 30.1055C7.70642 32.5867 5.24081 32.7812 3.38622 29.9353C3.1529 29.5775 2.99362 29.3095 2.78328 28.9012C2.68214 28.705 2.63657 28.5986 2.55095 28.3905L2.20148 27.7778C2.15516 27.0977 1.74393 26.3963 1.45939 25.9374C1.07037 25.5164 0.978115 25.0299 0.631817 24.5303C0.393367 24.1865 -0.213953 23.6088 0.077527 23.1618C0.562398 22.7271 0.968354 23.3592 1.22144 23.6585C1.199 23.0668 0.81319 22.4216 1.1334 21.8486C1.6763 21.2613 2.11447 22.7818 2.24678 22.9712C2.26205 22.7265 2.26668 22.259 2.37126 22.0747C2.55249 21.7555 2.44403 21.9629 2.5874 21.8757L2.86386 21.7602H3.03647L3.28689 22.9766C3.65651 22.9158 4.02526 22.685 4.39527 22.9406C4.84189 23.3676 4.01727 24.3208 3.68026 25.4293C4.14525 25.6531 3.78435 25.4551 3.97262 25.6964V25.6963Z" fill="#FDCE9B"/>
<path fill-rule="evenodd" clip-rule="evenodd" d="M22.5999 18.6875C23.0306 17.6353 21.8799 15.3316 21.2158 14.3731C20.544 13.4035 19.8633 12.6955 19.6175 12.332L17.9913 12.1535C17.9448 12.8083 18.0733 12.5288 18.2317 12.7776C16.6451 12.7963 13.8869 11.3343 12.5639 10.4174C12.0074 10.0318 11.5687 9.5268 10.9769 9.23049C11.1758 8.91743 11.2812 8.87957 11.4471 8.55835C11.5964 8.26955 11.6432 8.08592 11.7975 7.83936C12.1001 7.93177 12.1245 7.99428 12.4608 8.24968C13.2581 8.85507 16.3083 10.9204 17.1136 10.324C17.8201 9.80059 16.9523 9.15385 16.7321 8.66434C17.2877 8.8144 19.0545 9.78687 19.5584 10.1585C21.1882 11.3612 22.3677 13.1769 22.8992 15.1773C23.1349 16.0645 23.2918 18.1094 22.5999 18.6875H22.5999Z" fill="#FBBD7D"/>
<path fill-rule="evenodd" clip-rule="evenodd" d="M19.1829 52.4966L19.1756 54.4064L19.2912 55.1783C18.6225 55.224 18.7772 55.3503 18.2474 55.4711C17.7284 55.5894 17.6902 55.407 17.1484 55.4268C17.4919 55.1684 17.3375 55.5019 17.3607 55.0058C16.8594 52.2256 16.3861 49.589 16.2465 46.5925L19.0616 46.3159L19.1829 52.4966Z" fill="#FDCE9B"/>
<path fill-rule="evenodd" clip-rule="evenodd" d="M13.9594 54.788L14.0623 55.2271C13.494 55.1371 13.5491 55.3501 13.0353 55.4705C12.4871 55.5989 12.4807 55.4143 11.9511 55.4345C12.3901 55.1694 11.8995 55.4872 12.1687 55.2055L12.08 54.8495C12.006 53.6868 11.632 52.0897 11.4552 50.8636C11.2838 49.6736 11.2336 47.8539 10.9944 46.7418L13.8802 46.7288L13.9594 54.788H13.9594Z" fill="#FDCE9B"/>
<path fill-rule="evenodd" clip-rule="evenodd" d="M18.0964 23.5117L18.1013 23.626C18.3876 25.5563 17.6194 25.6955 16.0383 25.3431C15.6656 26.1495 15.3632 27.0605 14.3968 27.1765C13.2481 27.3143 12.6981 26.4299 12.5678 25.4332C12.0066 25.5901 11.3706 26.0044 10.9108 25.4468C10.4066 24.835 10.9296 24.0889 11.1852 23.6828C11.4849 23.5159 11.4555 23.3558 11.8794 23.239C12.0092 23.4218 11.9024 23.2992 12.0689 23.4251C13.2023 24.2827 15.7567 24.5327 17.3496 23.8372L18.0964 23.5117Z" fill="#FDFDFD"/>
<path fill-rule="evenodd" clip-rule="evenodd" d="M15.8645 18.1701C17.6494 18.3072 16.6918 19.9421 16.3957 20.252C14.6054 22.1258 11.4017 19.2944 12.6608 18.4693C12.9905 18.2533 15.3643 18.1316 15.8645 18.1701Z" fill="#F15A51"/>
<path fill-rule="evenodd" clip-rule="evenodd" d="M9.45233 28.4172C8.91882 28.6074 8.01386 28.5648 7.44812 28.1304L7.30976 28.0118C6.90843 26.7584 7.02958 26.2125 7.90221 25.3346C8.40544 24.8283 9.358 24.1248 10.4072 24.0112C10.0611 24.9397 9.49224 27.3606 9.45233 28.4172Z" fill="#FDFDFD"/>
<path fill-rule="evenodd" clip-rule="evenodd" d="M21.4865 28.1652L19.8376 28.2158C19.7942 26.5547 19.6769 25.1884 19.0455 23.8187C20.0463 23.8466 21.2149 24.7442 21.7719 25.4442C22.3532 26.1749 22.6617 27.8557 21.4865 28.1652Z" fill="#FDFDFD"/>
<path fill-rule="evenodd" clip-rule="evenodd" d="M17.1483 55.4268C17.6902 55.4071 17.7284 55.5894 18.2473 55.4711C18.7771 55.3503 18.6225 55.224 19.2911 55.1783L19.2955 55.2265C19.4177 55.8072 19.5209 56.37 19.287 56.9441C18.4384 57.5182 15.1612 57.6689 14.3901 57.0528C14.5443 56.3096 16.2508 55.5485 17.1483 55.4268Z" fill="#EF4541"/>
<path fill-rule="evenodd" clip-rule="evenodd" d="M11.9511 55.4343C12.4808 55.4141 12.4872 55.5987 13.0354 55.4703C13.5491 55.35 13.494 55.1369 14.0624 55.2269C14.2355 55.7766 14.2994 56.269 14.1351 56.8354C13.5463 57.5779 9.85856 57.6202 9.18773 57.0527C9.29964 56.3319 11.0691 55.5209 11.9511 55.4343V55.4343Z" fill="#EF4541"/>
<path fill-rule="evenodd" clip-rule="evenodd" d="M18.9089 15.4528C17.1729 15.8321 17.3836 13.8282 17.8762 13.4655C19.0559 12.5969 19.4611 14.5476 18.9089 15.4528Z" fill="#5F503D"/>
<path fill-rule="evenodd" clip-rule="evenodd" d="M12.0847 15.4954C11.5145 15.6559 11.071 15.7552 10.778 15.141C10.5682 14.7011 10.6013 13.9403 10.867 13.6314C11.6592 12.7101 12.6132 14.0204 12.0847 15.4954Z" fill="#5F503D"/>
<path fill-rule="evenodd" clip-rule="evenodd" d="M17.3427 11.8313C17.171 10.7908 19.159 10.6813 19.4981 11.4223C19.8799 12.2566 19.1843 12.0091 18.7619 11.8915C18.0387 11.69 17.9312 12.1242 17.3427 11.8313Z" fill="#F69C32"/>
<path fill-rule="evenodd" clip-rule="evenodd" d="M12.7029 11.6837C12.0708 11.7661 12.1243 11.3933 11.4158 11.5876C11.1659 11.6563 11.0378 11.8346 10.7695 11.6864C10.4854 11.5294 10.5313 11.3197 10.6757 11.0925C11.0241 10.5445 13.064 10.5262 12.7029 11.6837Z" fill="#F69C32"/>
<path fill-rule="evenodd" clip-rule="evenodd" d="M15.6028 16.145C15.5587 16.4241 15.6851 16.2957 15.4688 16.3116L15.0219 16.3999C15.0481 16.7603 14.9579 16.5016 15.1564 16.8154C15.3553 17.0084 14.9333 16.8842 15.422 17.0089L15.3708 17.3009L14.8406 17.1827C14.347 16.1051 15.0735 15.64 15.6028 16.145L15.6028 16.145Z" fill="#F48D56"/>
<path fill-rule="evenodd" clip-rule="evenodd" d="M20.0092 13.7219C20.0044 13.7249 19.97 14.1269 19.3533 13.6146C19.3631 13.6058 19.2289 13.4255 19.6712 13.4574C20.1125 13.4892 19.9404 13.653 20.0092 13.7219Z" fill="#785341"/>
<path fill-rule="evenodd" clip-rule="evenodd" d="M19.0175 12.7847C18.8558 12.5684 18.7897 13.0977 18.9105 12.558C18.9641 12.3182 18.9687 12.4326 19.1226 12.3508C19.3249 12.7008 19.2825 12.5826 19.0175 12.7847Z" fill="#785341"/>
<path fill-rule="evenodd" clip-rule="evenodd" d="M19.6974 13.0789C19.595 13.1489 19.8472 13.2334 19.4572 13.1976C19.1247 13.1671 19.4426 13.2578 19.2538 13.0789C19.7778 12.7024 19.6761 13.0635 19.6974 13.0789Z" fill="#785341"/>
<path fill-rule="evenodd" clip-rule="evenodd" d="M10.9194 12.921C10.3059 12.4949 10.7986 12.4765 10.8117 12.4597C11.3763 12.8531 10.9203 12.9196 10.9194 12.921Z" fill="#6D5141"/>
<path fill-rule="evenodd" clip-rule="evenodd" d="M10.4072 13.7385C10.0699 13.8649 10.1445 13.9069 9.94424 13.6322C10.075 13.5334 9.72747 13.4355 10.17 13.5217C10.6478 13.6149 10.2675 13.6338 10.4072 13.7385Z" fill="#836648"/>
<path fill-rule="evenodd" clip-rule="evenodd" d="M10.5633 13.1894C10.0591 13.2131 10.2995 13.2507 10.1186 12.9947C10.2033 12.952 9.93199 12.6921 10.4113 12.9535C10.451 12.9752 10.5488 13.0891 10.5633 13.1894Z" fill="#6D5141"/>
</svg>
