<svg width="270" height="244" viewBox="0 0 270 244" fill="none" xmlns="http://www.w3.org/2000/svg">
<path d="M214.136 30.7047C235.296 52.3186 230.566 85.0339 232.43 114.727C234.225 143.326 243.843 175.31 224.578 197.043C205.358 218.725 171.279 219.499 141.848 216.912C117.443 214.766 100.353 196.997 79.643 184.302C52.7165 167.797 13.5242 162.396 4.62277 132.795C-4.85976 101.263 14.7963 68.0711 37.3139 43.5434C59.307 19.5871 90.378 5.78531 123.427 3.38567C156.239 1.00329 191.493 7.57528 214.136 30.7047Z" fill="url(#paint0_linear_256_415)"/>
<path d="M238.984 56.8449C250.08 67.0243 254.506 79.8362 256.38 94.051C257.32 101.179 257.609 108.591 257.794 116.162C257.828 117.566 257.859 118.978 257.89 120.394C258.024 126.56 258.16 132.81 258.603 138.924C259.048 145.073 259.89 151.379 260.721 157.602C260.871 158.73 261.022 159.855 261.169 160.976C262.137 168.334 262.99 175.549 263.127 182.511C263.401 196.401 260.817 208.872 250.92 218.901C240.869 229.086 226.753 234.495 210.838 236.986C194.933 239.476 177.527 239.004 161.217 237.68C148.244 236.627 137.121 231.852 126.253 225.636C121.207 222.75 116.263 219.582 111.204 216.34C110.801 216.082 110.398 215.824 109.994 215.565C104.536 212.069 98.9379 208.517 93.0682 205.277C85.3753 201.031 76.8579 197.52 68.3724 194.206C66.4598 193.459 64.5516 192.722 62.6532 191.99C56.068 189.45 49.6026 186.956 43.4953 184.213C27.6835 177.11 15.3481 168.778 10.7869 155.248C5.79126 140.43 8.34317 125.082 15.3761 110.247C22.419 95.3916 33.8618 81.2712 46.2251 69.1761C70.0611 45.8571 103.909 32.3608 140.115 30.081C176.322 27.8011 214.595 34.4699 238.984 56.8449Z" stroke="white" stroke-opacity="0.46" stroke-width="6"/>
<defs>
<linearGradient id="paint0_linear_256_415" x1="196.831" y1="22.71" x2="121.811" y2="218.616" gradientUnits="userSpaceOnUse">
<stop stop-color="#7C3AED"/>
<stop offset="1" stop-color="#7C3AED" stop-opacity="0"/>
</linearGradient>
</defs>
</svg>
