<svg width="24" height="20" viewBox="0 0 24 20" fill="none" xmlns="http://www.w3.org/2000/svg">
<path d="M15.0013 6.66724V8.33404H10.0009C9.11676 8.33404 8.26885 8.68525 7.64368 9.31043C7.01851 9.9356 6.66729 10.7835 6.66729 11.6676V15.0012C6.66729 15.8854 7.01851 16.7333 7.64368 17.3585C8.26885 17.9836 9.11676 18.3348 10.0009 18.3348H18.3349C19.219 18.3348 20.0669 17.9836 20.6921 17.3585C21.3173 16.7333 21.6685 15.8854 21.6685 15.0012V11.6676C21.6685 11.0825 21.5144 10.5076 21.2219 10.0009C20.9293 9.49413 20.5085 9.07332 20.0017 8.78074V6.95059C21.9435 7.63731 23.3353 9.48913 23.3353 11.666V14.9996C23.3353 16.3258 22.8085 17.5976 21.8707 18.5354C20.933 19.4731 19.6611 20 18.3349 20H10.0009C8.6747 20 7.40283 19.4731 6.46507 18.5354C5.52731 17.5976 5.00049 16.3258 5.00049 14.9996V11.6676C5.00049 10.3414 5.52731 9.06958 6.46507 8.13182C7.40283 7.19406 8.6747 6.66724 10.0009 6.66724H15.0013Z" fill="white"/>
<path d="M8.334 13.3344V11.6676H13.3344C14.2185 11.6676 15.0664 11.3164 15.6916 10.6912C16.3168 10.066 16.668 9.21813 16.668 8.334V5.0004C16.668 4.11628 16.3168 3.26836 15.6916 2.64319C15.0664 2.01802 14.2185 1.6668 13.3344 1.6668H5.0004C4.11628 1.6668 3.26836 2.01802 2.64319 2.64319C2.01802 3.26836 1.6668 4.11628 1.6668 5.0004V8.334C1.66682 8.91916 1.82086 9.494 2.11344 10.0008C2.40602 10.5075 2.82684 10.9283 3.3336 11.2209V13.051C2.3584 12.706 1.51416 12.0671 0.91714 11.2223C0.320124 10.3775 -0.000298238 9.36845 2.08293e-07 8.334V5.0004C2.08293e-07 3.67421 0.526827 2.40234 1.46458 1.46458C2.40234 0.526827 3.67421 0 5.0004 0H13.3344C14.6606 0 15.9325 0.526827 16.8702 1.46458C17.808 2.40234 18.3348 3.67421 18.3348 5.0004V8.334C18.3348 9.66019 17.808 10.9321 16.8702 11.8698C15.9325 12.8076 14.6606 13.3344 13.3344 13.3344H8.334Z" fill="white"/>
</svg>
