<svg width="360" height="268" viewBox="0 0 360 268" fill="none" xmlns="http://www.w3.org/2000/svg">
<g filter="url(#filter0_d_263_413)">
<path d="M21.6133 132.288L3.72459 123.933L360.069 130.392L360.069 196.041C355.746 194.083 351.338 192.313 346.87 190.785C310.048 178.201 269.049 182.117 228.833 182.94C188.617 183.763 149.445 180.46 112.101 169.938C74.7574 159.416 39.241 141.674 21.6133 132.288Z" fill="url(#paint0_linear_263_413)" shape-rendering="crispEdges"/>
</g>
<g filter="url(#filter1_d_263_413)">
<path d="M10.5267 252.102L0.069417 252.102L0.0694066 -1.6081L360.069 -1.60813L360.069 155.035L359.984 155.016C341.211 150.652 310.894 143.604 277.925 150.258C244.906 156.921 216.402 178.973 187.051 198.14C157.7 217.307 127.221 232.627 94.7666 241.214C62.3121 249.801 27.8826 251.656 10.5267 252.102Z" fill="url(#paint1_linear_263_413)"/>
</g>
<defs>
<filter id="filter0_d_263_413" x="-6.27541" y="118.933" width="376.345" height="92.1077" filterUnits="userSpaceOnUse" color-interpolation-filters="sRGB">
<feFlood flood-opacity="0" result="BackgroundImageFix"/>
<feColorMatrix in="SourceAlpha" type="matrix" values="0 0 0 0 0 0 0 0 0 0 0 0 0 0 0 0 0 0 127 0" result="hardAlpha"/>
<feOffset dy="5"/>
<feGaussianBlur stdDeviation="5"/>
<feComposite in2="hardAlpha" operator="out"/>
<feColorMatrix type="matrix" values="0 0 0 0 0 0 0 0 0 0 0 0 0 0 0 0 0 0 0.25 0"/>
<feBlend mode="normal" in2="BackgroundImageFix" result="effect1_dropShadow_263_413"/>
<feBlend mode="normal" in="SourceGraphic" in2="effect1_dropShadow_263_413" result="shape"/>
</filter>
<filter id="filter1_d_263_413" x="-9.9306" y="-6.60813" width="380" height="273.71" filterUnits="userSpaceOnUse" color-interpolation-filters="sRGB">
<feFlood flood-opacity="0" result="BackgroundImageFix"/>
<feColorMatrix in="SourceAlpha" type="matrix" values="0 0 0 0 0 0 0 0 0 0 0 0 0 0 0 0 0 0 127 0" result="hardAlpha"/>
<feOffset dy="5"/>
<feGaussianBlur stdDeviation="5"/>
<feComposite in2="hardAlpha" operator="out"/>
<feColorMatrix type="matrix" values="0 0 0 0 0 0 0 0 0 0 0 0 0 0 0 0 0 0 0.25 0"/>
<feBlend mode="normal" in2="BackgroundImageFix" result="effect1_dropShadow_263_413"/>
<feBlend mode="normal" in="SourceGraphic" in2="effect1_dropShadow_263_413" result="shape"/>
</filter>
<linearGradient id="paint0_linear_263_413" x1="226.031" y1="202.039" x2="277.482" y2="19.4328" gradientUnits="userSpaceOnUse">
<stop stop-color="#A78BFA"/>
<stop offset="1" stop-color="#C3B4EE" stop-opacity="0"/>
</linearGradient>
<linearGradient id="paint1_linear_263_413" x1="104.069" y1="214.392" x2="-23.3892" y2="-68.0117" gradientUnits="userSpaceOnUse">
<stop stop-color="#8B5CF6"/>
<stop offset="0.338178" stop-color="#987BDD"/>
<stop offset="1" stop-color="#BAA7E4"/>
</linearGradient>
</defs>
</svg>
