<svg width="360" height="233" viewBox="0 0 360 233" fill="none" xmlns="http://www.w3.org/2000/svg">
<g filter="url(#filter0_d_93_222)">
<path d="M21.6133 97.2881L3.72459 88.9331L360.069 95.3919L360.069 161.041C355.746 159.083 351.338 157.313 346.87 155.785C310.048 143.201 269.049 147.117 228.833 147.94C188.617 148.763 149.445 145.46 112.101 134.938C74.7574 124.416 39.241 106.674 21.6133 97.2881Z" fill="url(#paint0_linear_93_222)" shape-rendering="crispEdges"/>
</g>
<g filter="url(#filter1_d_93_222)">
<path d="M10.5267 217.102L0.069417 217.102L0.0694066 -36.6081L360.069 -36.6081L360.069 120.035L359.984 120.016C341.211 115.652 310.894 108.604 277.925 115.258C244.906 121.921 216.402 143.973 187.051 163.14C157.7 182.307 127.221 197.627 94.7666 206.214C62.3121 214.801 27.8826 216.656 10.5267 217.102Z" fill="url(#paint1_linear_93_222)"/>
</g>
<defs>
<filter id="filter0_d_93_222" x="-6.27541" y="-74.8084" width="376.345" height="250.849" filterUnits="userSpaceOnUse" color-interpolation-filters="sRGB">
<feFlood flood-opacity="0" result="BackgroundImageFix"/>
<feColorMatrix in="SourceAlpha" type="matrix" values="0 0 0 0 0 0 0 0 0 0 0 0 0 0 0 0 0 0 127 0" result="hardAlpha"/>
<feOffset dy="5"/>
<feGaussianBlur stdDeviation="5"/>
<feComposite in2="hardAlpha" operator="out"/>
<feColorMatrix type="matrix" values="0 0 0 0 0 0 0 0 0 0 0 0 0 0 0 0 0 0 0.25 0"/>
<feBlend mode="normal" in2="BackgroundImageFix" result="effect1_dropShadow_93_222"/>
<feBlend mode="normal" in="SourceGraphic" in2="effect1_dropShadow_93_222" result="shape"/>
</filter>
<filter id="filter1_d_93_222" x="-9.9306" y="-41.6081" width="380" height="273.71" filterUnits="userSpaceOnUse" color-interpolation-filters="sRGB">
<feFlood flood-opacity="0" result="BackgroundImageFix"/>
<feColorMatrix in="SourceAlpha" type="matrix" values="0 0 0 0 0 0 0 0 0 0 0 0 0 0 0 0 0 0 127 0" result="hardAlpha"/>
<feOffset dy="5"/>
<feGaussianBlur stdDeviation="5"/>
<feComposite in2="hardAlpha" operator="out"/>
<feColorMatrix type="matrix" values="0 0 0 0 0 0 0 0 0 0 0 0 0 0 0 0 0 0 0.25 0"/>
<feBlend mode="normal" in2="BackgroundImageFix" result="effect1_dropShadow_93_222"/>
<feBlend mode="normal" in="SourceGraphic" in2="effect1_dropShadow_93_222" result="shape"/>
</filter>
<linearGradient id="paint0_linear_93_222" x1="226.031" y1="167.039" x2="277.482" y2="-15.5672" gradientUnits="userSpaceOnUse">
<stop stop-color="#A78BFA"/>
<stop offset="1" stop-color="#C3B4EE" stop-opacity="0"/>
</linearGradient>
<linearGradient id="paint1_linear_93_222" x1="104.069" y1="179.392" x2="-23.3892" y2="-103.012" gradientUnits="userSpaceOnUse">
<stop stop-color="#8B5CF6"/>
<stop offset="0.338178" stop-color="#987BDD"/>
<stop offset="1" stop-color="#BAA7E4"/>
</linearGradient>
</defs>
</svg>
